# xmcd CD database file
# Copyright (C) 1993-1998 Ti Kan
# 
# Track frame offsets:
#     150
#     11467
#     25220
#     35120
#     52602
#     64595
#     81907
#     92412
#     104785
#     122687
#     136735
#     148595
#     155150
#     172467
#     186280
#     195715
#     208387
# 
# Disc length: 2907 seconds
# 
# Revision: 1
# Processed by: cddbd v1.4b41PL1 Copyright (c) Steve Scherf et al.
# Submitted via: DiscPlay 4.0.4
# 
DISCID=f70b5911
DTITLE=Var. - THE BLUES COLLECTION
DYEAR=1900
DGENRE=
TTITLE0=Snake Drive - ERIC CLAPTON
TTITLE1=I Tried - SAVOY BROWN BLUES BAND
TTITLE2=I'm Your Witchdoctor - JOHN MAYALL and THE BLUESBREAKERS
TTITLE3=The Next Millestone - ALBERT LEE
TTITLE4=Steelin' - JEFF BECK and THE ALL STARS
TTITLE5=Cold Blooded Woman - SAVOY BROWN BLUES BAND
TTITLE6=West Coast Idea - ERIC CLAPTON
TTITLE7=Flapjacks - STONES MASONRY
TTITLE8=Telephone Blues - JOHN MAYALL and THE BLUESBREAKERS
TTITLE9=Ain't Gonna Cry No More - TONY McPHEE
TTITLE10=Rubber Monkey - SANTA BARBARA and MACHINE HEAD
TTITLE11=Chocker - ERIC CLAPTON and JIMMY PAGE
TTITLE12=Crosstown Link - ALBERT LEE
TTITLE13=Look Down At My Woman - JEREMY SPENCER
TTITLE14=L. A. Breakdown - JIMMY PAGE and THE ALL STARS
TTITLE15=Someday Baby - CYRIL DAVIES and THE ALL STARS
TTITLE16=Tribute to Elmore - ERIC CLAPTON
EXTD=
EXTT0=
EXTT1=
EXTT2=
EXTT3=
EXTT4=
EXTT5=
EXTT6=
EXTT7=
EXTT8=
EXTT9=
EXTT10=
EXTT11=
EXTT12=
EXTT13=
EXTT14=
EXTT15=
EXTT16=
PLAYORDER=
